# xmcd
#
# Track frame offsets:
#	150
#	14124
#	27638
#	41937
#	54921
#	68738
#	86159
#	99482
#	111690
#	122644
#	134376
#	149406
#
# Disc length: 2210 seconds
#
# Revision: 1
# Processed by: cddbd v1.5.2PL0 Copyright (c) Steve Scherf et al.
# Submitted via: audiograbber 1.83.01
#
DISCID=b908a00c
DTITLE=сйоука лаяиа [2001] - хакассимес ацапес
DYEAR=2001
DGENRE=
TTITLE0=хакассимес ацапес
TTITLE1=стг мано ха стахы
TTITLE2=лиа хакасса г ацапг лас
TTITLE3=ауяа лоу алояциамг
TTITLE4=та дуо соу латиа сам хыяы
TTITLE5=ейеимос поу пистеьа
TTITLE6=ста пакиа та бапояайиа
TTITLE7=еяыта лоу думате
TTITLE8=памтяеьоу ле
TTITLE9=кицг сгласиа дысе лоу
TTITLE10=л' ацапас г ови
TTITLE11=лектели йуйкадитийо
EXTD=
EXTT0=
EXTT1=
EXTT2=
EXTT3=
EXTT4=
EXTT5=
EXTT6=
EXTT7=
EXTT8=
EXTT9=
EXTT10=
EXTT11=
PLAYORDER=
